# xmcd
#
# Track frame offsets: 
#        150
#        14237
#        27351
#        37888
#        48576
#        61425
#        74957
#        83836
#        95351
#        109495
#        120185
#        131512
#        141669
#        152794
#        163719
#        174384
#        185244
#        197401
#        207074
#        217935
#        227249
#        238187
#        249181
#        260883
#        272396
#        282052
#        294124
#        304258
#        314345
#        324784
#        335304
#        345816
#
# Disc length: 4763 seconds
#
# Revision: 1
# Processed by: cddbd v1.5.2PL0 Copyright (c) Steve Scherf et al.
# Submitted via: ExactAudioCopy v1.0b1
#
DISCID=d6129920
DTITLE=Various Artist - Ike Turner: That Kat Sure Could Play! [CD4
DTITLE=)
DYEAR=2010
DGENRE=Blues
TTITLE0=The Sly Fox - My Four Women
TTITLE1=Little Milton - Looking For My Baby
TTITLE2=Little Milton - Homesick For My Baby
TTITLE3=Ike Turner and His Orchestra - Go To It
TTITLE4=Johnny Wright with Ike Turners Orchestra - The World Is Yours
TTITLE5=The Trojans - As Long As I Have You
TTITLE6=The Trojans - I Wanna Make Love To You
TTITLE7=Willie King with Ike Turner featuring Billy Gayles - Peg Leg W
TTITLE7=oman
TTITLE8=Willie King with Ike Turner featuring  Billy Gayles - Mistreat
TTITLE8=ing Me
TTITLE9=Billy Gayles with Ike Turners Rhythm Rockers - I'm Tore Up
TTITLE10=Billy Gayles with Ike Turners Rhythm Rockers - If I Had Never
TTITLE10=Known You
TTITLE11=The Rockers - What Am I To Do
TTITLE12=Billy Gayles with Ike Turners Kings Of Rhythm - Let's Call It
TTITLE12=A Day
TTITLE13=Billy Gayles with Ike Turners Kings Of Rhythm - Take Your Fin
TTITLE13=e Frame Home
TTITLE14=The Rockers - Why Don't You Believe
TTITLE15=The Rockers - Down In The Bottom
TTITLE16=Billy Gayles with Ike Turners Kings Of Rhythm - No Coming Bac
TTITLE16=k
TTITLE17=Billy Gayles with Ike Turners Kings Of Rhythm - Do Right Baby
TTITLE18=Jackie Brenston with Ike Turners Kings Of Rhythm - What Can I
TTITLE18=t Be
TTITLE19=Jackie Brenston with Ike Turners Kings Of Rhythm - Gonna Wait
TTITLE19=For My Chance
TTITLE20=The Gardenias - Flaming Love
TTITLE21=The Gardenias - My Baby's Tops
TTITLE22=The Starrs - Ain't Got No Home
TTITLE23=The Starrs - Crying Over You
TTITLE24=Billy Gayles with Ike Turners Kings Of Rhythm - Sad As A Man 
TTITLE24=Can Be
TTITLE25=Billy Gayles with Ike Turners Kings Of Rhythm - Just One More
TTITLE25=Time
TTITLE26=Jackie Brenston with Ike Turners Kings Of Rhythm - Much Later
TTITLE27=Jackie Brenston with Ike Turners Kings Of Rhythm - The Mistre
TTITLE27=ater
TTITLE28=Ike Turner and His Orchestra - Do You Mean It
TTITLE29=Ike Turner and His Orchestra - She Made My Blood Run Cold
TTITLE30=Ike Turner and His Orchestra - The Big Question
TTITLE31=Ike Turner and His Orchestra - Trail Blazer
EXTD=
EXTT0=
EXTT1=
EXTT2=
EXTT3=
EXTT4=
EXTT5=
EXTT6=
EXTT7=
EXTT8=
EXTT9=
EXTT10=
EXTT11=
EXTT12=
EXTT13=
EXTT14=
EXTT15=
EXTT16=
EXTT17=
EXTT18=
EXTT19=
EXTT20=
EXTT21=
EXTT22=
EXTT23=
EXTT24=
EXTT25=
EXTT26=
EXTT27=
EXTT28=
EXTT29=
EXTT30=
EXTT31=
PLAYORDER=
